HIERARCHY
ROOT Hips
{
	OFFSET 0.00000 0.00000 0.00000
	CHANNELS 6 Xposition Yposition Zposition Zrotation Yrotation Xrotation 
	JOINT LHipJoint
	{
		OFFSET 0 0 0
		CHANNELS 3 Zrotation Yrotation Xrotation
		JOINT LeftHip
		{
			OFFSET 1.86795 -1.59681 0.65681
			CHANNELS 3 Zrotation Yrotation Xrotation
			JOINT LeftKnee
			{
				OFFSET 2.30491 -6.33268 0.00000
				CHANNELS 3 Zrotation Yrotation Xrotation
				JOINT LeftAnkle
				{
					OFFSET 2.46780 -6.78022 0.00000
					CHANNELS 3 Zrotation Yrotation Xrotation
					JOINT LeftToe
					{
						OFFSET 0.07897 -0.21698 1.59652
						CHANNELS 3 Zrotation Yrotation Xrotation
						End Site
						{
							OFFSET 0.00000 -0.00000 0.82310
						}
					}
				}
			}
		}
	}
	JOINT RHipJoint
	{
		OFFSET 0 0 0
		CHANNELS 3 Zrotation Yrotation Xrotation
		JOINT RightHip
		{
			OFFSET -1.93650 -1.59681 0.65681
			CHANNELS 3 Zrotation Yrotation Xrotation
			JOINT RightKnee
			{
				OFFSET -2.29410 -6.30299 0.00000
				CHANNELS 3 Zrotation Yrotation Xrotation
				JOINT RightAnkle
				{
					OFFSET -2.48738 -6.83403 0.00000
					CHANNELS 3 Zrotation Yrotation Xrotation
					JOINT RightToe
					{
						OFFSET -0.08699 -0.23899 1.89395
						CHANNELS 3 Zrotation Yrotation Xrotation
						End Site
						{
							OFFSET -0.00000 -0.00000 0.96904
						}
					}
				}
			}
		}
	}
	JOINT lowerback
	{
		OFFSET 0 0 0
		CHANNELS 3 Zrotation Yrotation Xrotation
		JOINT Chest
		{
			OFFSET 0.03629 1.99740 -0.07548
			CHANNELS 3 Zrotation Yrotation Xrotation
			JOINT Chest2
			{
				OFFSET 0.03970 1.94298 0.17218
				CHANNELS 3 Zrotation Yrotation Xrotation
				JOINT lowerneck
				{
					OFFSET 0 0 0
					CHANNELS 3 Zrotation Yrotation Xrotation
					JOINT Neck
					{
						OFFSET -0.05054 1.79469 0.04241
						CHANNELS 3 Zrotation Yrotation Xrotation
						JOINT Head
						{
							OFFSET 0.05195 1.78475 -0.22133
							CHANNELS 3 Zrotation Yrotation Xrotation
							End Site
							{
								OFFSET 0.02420 1.80711 -0.07950
							}
						}
					}
				}
				JOINT LeftCollar
				{
					OFFSET 0 0 0
					CHANNELS 3 Zrotation Yrotation Xrotation
					JOINT LeftShoulder
					{
						OFFSET 2.92134 1.19850 0.36056
CHANNELS 3 Zrotation Xrotation Yrotation
						JOINT LeftElbow
						{
OFFSET 0 -4.841370 0.000000
CHANNELS 3 Zrotation Xrotation Yrotation
							JOINT LeftWrist
							{
OFFSET 0 -3.245200 -0.000000
CHANNELS 3 Zrotation Xrotation Yrotation
								JOINT lhand
								{
									OFFSET 0 0 0
CHANNELS 3 Zrotation Xrotation Yrotation
									JOINT LFingers
									{
OFFSET 0 -0.521220 0.000000
CHANNELS 3 Zrotation Xrotation Yrotation
										End Site
										{
OFFSET 0 -0.420220 0.000000
										}
									}
								}
								JOINT LThumb
								{
OFFSET 0 0.000000 0.000000
CHANNELS 3 Zrotation Xrotation Yrotation
									End Site
									{
OFFSET 0 -0.426640 0.426640
									}
								}
							}
						}
					}
				}
				JOINT RightCollar
				{
					OFFSET 0 0 0
					CHANNELS 3 Zrotation Yrotation Xrotation
					JOINT RightShoulder
					{
						OFFSET -2.84327 1.20795 0.50191
CHANNELS 3 Zrotation Xrotation Yrotation
						JOINT RightElbow
						{
OFFSET 0 -4.722840 0.000000
CHANNELS 3 Zrotation Xrotation Yrotation
							JOINT RightWrist
							{
OFFSET 0 -3.234590 0.000000
CHANNELS 3 Zrotation Xrotation Yrotation
								JOINT rhand
								{
									OFFSET 0 0 0
CHANNELS 3 Zrotation Xrotation Yrotation
									JOINT RFingers
									{
OFFSET 0 -0.307420 0.000000
CHANNELS 3 Zrotation Xrotation Yrotation
										End Site
										{
OFFSET 0 -0.247850 0.000000
										}
									}
								}
								JOINT RThumb
								{
OFFSET 0 0.000000 0.000000
CHANNELS 3 Zrotation Xrotation Yrotation
									End Site
									{
OFFSET 0 -0.251630 0.251630
									}
								}
							}
						}
					}
				}
			}
		}
	}
}
MOTION
Frames: 12
Frame Time: 0.008333333333333333
12.683276 16.462277 -12.518576 0.146364 -35.704547 4.813866 0.000000 0.000000 0.000000 -14.321583 11.976618 5.071382 0.000000 0.000000 0.000000 0.579215 4.804379 -16.930977 1.130550 6.753309 18.986436 0.000000 0.000000 0.000000 15.000049 32.620457 -4.768950 -0.993704 -6.344330 17.786896 0.519856 -13.219134 -9.001698 -1.420961 7.535437 -21.313099 1.204570 -2.066840 -7.102233 1.318633 -2.927131 0.761976 0.365987 -1.436289 4.782612 -13.343427 -6.697806 8.650992 -16.126358 -6.479177 34.895485 -4.046113 -6.495154 10.039958 0.000000 0.000000 0.000000 111.127709 -37.339176 65.399337 164.924693 -24.250798 116.743111 -49.022465 -69.605952 -18.501625 0.000000 0.000000 0.000000 -7.125000 0.000000 0.000000 -55.686701 38.034213 -16.865289 0.000000 0.000000 0.000000 -53.319022 24.726867 58.259374 -126.720894 -54.235384 -91.185577 -2.039653 -28.450997 -12.326641 0.000000 0.000000 0.000000 7.125000 0.000000 0.000000 17.368792 17.945041 11.724802
12.682658 16.464720 -12.513016 0.445272 -35.110111 4.671841 0.000000 0.000000 0.000000 -14.571798 11.248803 5.186522 0.000000 0.000000 0.000000 0.538513 5.145595 -16.697656 0.952090 6.213661 17.405735 0.000000 0.000000 0.000000 14.749347 32.415571 -4.724535 -1.004507 -6.377525 17.883906 0.563633 -13.665239 -9.004162 -1.283949 7.177988 -20.244780 1.100374 -2.045014 -7.296194 1.151473 -2.884393 0.786799 0.247823 -1.414097 4.914371 -11.598788 -6.904267 8.504664 -18.241664 -6.269676 34.352464 -5.011386 -6.332623 9.625270 0.000000 0.000000 0.000000 111.893035 -38.109021 68.233830 162.549332 -27.447416 115.706710 -55.889327 -74.253123 -15.178305 0.000000 0.000000 0.000000 -7.125000 0.000000 0.000000 -50.832951 29.952780 -33.559565 0.000000 0.000000 0.000000 -52.893748 24.816661 58.765805 -125.884353 -54.526244 -90.505535 -1.322202 -28.324181 -13.260418 0.000000 0.000000 0.000000 7.125000 0.000000 0.000000 17.762523 17.073550 12.377862
12.680152 16.470749 -12.512607 0.376005 -34.412300 4.877700 0.000000 0.000000 0.000000 -14.482323 10.378660 5.110416 0.000000 0.000000 0.000000 0.488773 5.563182 -16.413211 0.704166 5.362734 14.946191 0.000000 0.000000 0.000000 14.791399 32.535708 -4.527359 -0.977196 -6.292770 17.636265 0.651979 -14.548535 -9.134466 -1.270618 7.144149 -20.143277 1.344124 -1.978739 -7.519714 1.088551 -2.816186 0.604577 0.049582 -1.373809 4.835422 -14.116065 -6.464968 8.537645 -15.839215 -6.096122 35.338343 -3.860983 -6.416978 10.331888 0.000000 0.000000 0.000000 111.769914 -39.208886 68.164220 158.812998 -32.045578 113.850928 -57.649356 -75.984103 -15.370637 0.000000 0.000000 0.000000 -7.125000 0.000000 0.000000 -50.239233 28.627496 -36.159860 0.000000 0.000000 0.000000 -52.819044 25.069258 59.268084 -125.523440 -54.648845 -90.211381 -1.636882 -28.640182 -12.504838 0.000000 0.000000 0.000000 7.125000 0.000000 0.000000 17.622187 17.785299 11.978878
12.668341 16.468323 -12.514462 0.992887 -34.577511 4.464267 0.000000 0.000000 0.000000 -15.016507 10.412565 5.207313 0.000000 0.000000 0.000000 0.539867 5.341049 -16.857290 0.908145 6.071196 16.991717 0.000000 0.000000 0.000000 14.289721 32.832608 -4.723313 -1.048581 -6.511653 18.276344 0.648662 -14.627137 -9.637690 -1.333124 7.311329 -20.641053 0.572315 -1.840271 -7.465023 1.021499 -2.555912 0.519905 0.445340 -1.264582 4.748172 -16.279922 -6.063136 7.919747 -13.648174 -5.795486 36.724838 -2.880949 -6.479097 11.282832 0.000000 0.000000 0.000000 111.752738 -39.213177 67.377130 154.636127 -36.573109 111.493991 -56.302946 -77.837983 -17.793174 0.000000 0.000000 0.000000 -7.125000 0.000000 0.000000 -53.420869 33.414520 -28.011065 0.000000 0.000000 0.000000 -52.991697 25.258790 59.931946 -125.220491 -54.750233 -89.964142 -1.026463 -28.520934 -13.062204 0.000000 0.000000 0.000000 7.125000 0.000000 0.000000 17.976822 17.269936 12.461630
12.669800 16.469357 -12.498482 1.059684 -33.639218 4.274338 0.000000 0.000000 0.000000 -15.011975 9.401273 5.553136 0.000000 0.000000 0.000000 0.487076 5.736408 -16.527872 0.696243 5.326283 14.843322 0.000000 0.000000 0.000000 14.396539 32.266110 -4.343217 -1.048180 -6.510439 18.272803 0.736933 -15.348189 -9.245178 -1.516532 7.771998 -22.026107 0.645735 -2.001333 -7.466737 0.930886 -2.773891 0.633562 0.282996 -1.368538 4.860987 -16.696933 -5.995252 8.007146 -13.326021 -5.804597 36.312350 -2.661277 -6.461025 11.136916 0.000000 0.000000 0.000000 112.333987 -39.131728 65.580344 151.750460 -39.344613 109.718403 -55.506994 -74.839050 -20.012573 0.000000 0.000000 0.000000 -7.125000 0.000000 0.000000 -56.356796 36.835687 -21.300933 0.000000 0.000000 0.000000 -52.938732 24.949137 59.944210 -124.622618 -54.946718 -89.475319 -0.765346 -28.330800 -13.478443 0.000000 0.000000 0.000000 7.125000 0.000000 0.000000 18.110887 16.880821 12.728395
12.663986 16.467997 -12.495404 0.967246 -33.637741 4.511936 0.000000 0.000000 0.000000 -14.985171 9.247973 5.414844 0.000000 0.000000 0.000000 0.471619 6.059589 -16.599012 0.646503 5.139066 14.306632 0.000000 0.000000 0.000000 14.387265 32.259711 -4.575908 -1.054591 -6.529726 18.329364 0.723023 -15.233664 -9.295361 -1.393176 7.462630 -21.095748 0.503245 -1.840372 -7.596794 0.976324 -2.550901 0.682281 0.430149 -1.262042 4.993003 -15.925377 -6.008011 7.240584 -13.471020 -5.550744 36.762599 -2.876936 -6.309998 11.394099 0.000000 0.000000 0.000000 113.291018 -38.684827 64.284888 151.094470 -39.936571 109.299971 -55.882527 -73.153452 -19.839629 0.000000 0.000000 0.000000 -7.125000 0.000000 0.000000 -56.027995 36.421170 -22.245597 0.000000 0.000000 0.000000 -52.935026 24.943667 59.809297 -124.490066 -54.989622 -89.366738 -0.612424 -28.694325 -13.856513 0.000000 0.000000 0.000000 7.125000 0.000000 0.000000 18.177024 16.525509 12.929388
12.659656 16.472307 -12.485372 1.301785 -33.683729 4.524124 0.000000 0.000000 0.000000 -15.341240 9.122389 5.290707 0.000000 0.000000 0.000000 0.545711 5.719903 -17.211658 0.956648 6.227204 17.445443 0.000000 0.000000 0.000000 13.953854 32.439939 -4.705989 -1.055366 -6.532035 18.336179 0.728090 -15.331666 -9.566928 -1.339066 7.325198 -20.683260 0.405775 -1.564403 -7.739214 0.711032 -2.161200 0.644060 0.252056 -1.067875 5.023826 -15.223797 -6.338868 7.779944 -14.217164 -5.961935 36.413911 -3.226384 -6.428215 11.064944 0.000000 0.000000 0.000000 114.339733 -38.809527 62.939870 153.303546 -37.887609 110.687638 -59.843484 -73.814768 -17.397029 0.000000 0.000000 0.000000 -7.125000 0.000000 0.000000 -51.333733 29.939640 -34.793637 0.000000 0.000000 0.000000 -52.366004 25.306486 59.764287 -124.519280 -54.980227 -89.390677 -2.430578 -29.271155 -13.131732 0.000000 0.000000 0.000000 7.125000 0.000000 0.000000 17.036735 17.164297 11.785986
12.656000 16.475907 -12.473989 1.305481 -33.223152 4.527994 0.000000 0.000000 0.000000 -15.299620 8.547609 5.400362 0.000000 0.000000 0.000000 0.523174 5.887927 -17.079166 0.789497 5.671846 15.835159 0.000000 0.000000 0.000000 13.970853 31.895775 -4.782014 -1.065259 -6.561795 18.423333 0.737828 -15.423324 -9.593273 -1.460831 7.637669 -21.619388 0.181529 -1.898654 -7.459851 0.938085 -2.592429 0.338644 0.577194 -1.291650 4.570074 -17.048348 -5.822945 8.508327 -12.807326 -5.780450 36.513173 -2.408421 -6.447558 11.176108 0.000000 0.000000 0.000000 113.685777 -38.367325 60.830693 156.007208 -35.156375 112.297479 -61.754714 -72.361441 -17.252574 0.000000 0.000000 0.000000 -7.125000 0.000000 0.000000 -50.151210 27.815201 -38.444803 0.000000 0.000000 0.000000 -53.241782 25.078660 60.856757 -124.205231 -55.081061 -89.133386 -0.843956 -28.575852 -13.791396 0.000000 0.000000 0.000000 7.125000 0.000000 0.000000 18.030651 16.581229 12.790521
12.648615 16.482149 -12.460530 1.048542 -32.829641 4.686376 0.000000 0.000000 0.000000 -15.082410 8.064013 5.505474 0.000000 0.000000 0.000000 0.509555 6.193120 -17.162239 0.804569 5.724691 15.987764 0.000000 0.000000 0.000000 14.263223 31.966950 -4.574800 -1.063170 -6.555410 18.404817 0.720438 -15.419461 -10.281939 -1.157861 6.831410 -19.216862 0.645030 -1.658644 -7.287968 0.798768 -2.304882 0.334701 0.211486 -1.137244 4.441535 -16.595665 -6.177812 8.177404 -12.776147 -6.133499 37.107427 -2.546646 -6.592482 11.452970 0.000000 0.000000 0.000000 114.376632 -39.138072 61.989560 156.789405 -34.318307 112.743365 -59.929613 -68.667943 -16.909572 0.000000 0.000000 0.000000 -7.125000 0.000000 0.000000 -50.728881 29.007679 -36.248887 0.000000 0.000000 0.000000 -52.549265 25.539396 60.497213 -124.223178 -55.075339 -89.148000 -1.190718 -28.897441 -13.766215 0.000000 0.000000 0.000000 7.125000 0.000000 0.000000 17.804410 16.595549 12.606809
12.642836 16.476697 -12.452403 1.223481 -32.494702 4.516399 0.000000 0.000000 0.000000 -15.211213 7.635731 5.701885 0.000000 0.000000 0.000000 0.477744 6.468790 -17.011336 0.743076 5.506536 15.359059 0.000000 0.000000 0.000000 14.197431 31.670566 -4.433068 -1.063541 -6.556541 18.408037 0.794556 -15.935405 -9.695077 -1.453438 7.618088 -21.561145 0.576599 -1.720478 -7.128906 0.831833 -2.381192 0.357024 0.280347 -1.177378 4.379511 -16.210128 -6.280123 7.639906 -13.262145 -6.015066 37.065730 -2.797917 -6.539524 11.484615 0.000000 0.000000 0.000000 113.444991 -38.532406 64.128532 154.156019 -37.053426 111.206212 -62.066775 -70.442641 -15.797808 0.000000 0.000000 0.000000 -7.125000 0.000000 0.000000 -48.394205 24.549011 -43.012232 0.000000 0.000000 0.000000 -52.669257 25.500350 60.711594 -124.111291 -55.110930 -89.056325 -0.614515 -28.873911 -13.901486 0.000000 0.000000 0.000000 7.125000 0.000000 0.000000 18.171963 16.482445 12.942574
12.633149 16.479362 -12.451370 1.074276 -32.225801 4.673526 0.000000 0.000000 0.000000 -15.020802 7.245667 5.716962 0.000000 0.000000 0.000000 0.482703 6.465897 -17.067936 0.749462 5.529129 15.424193 0.000000 0.000000 0.000000 14.380111 31.695716 -4.225497 -1.029634 -6.454404 18.108790 0.835246 -16.294094 -9.773723 -1.495644 7.720241 -21.869955 0.668155 -1.735619 -6.879720 1.060403 -2.411636 -0.024156 0.477116 -1.195986 3.850017 -16.840603 -6.143133 8.039432 -12.627048 -6.093250 36.932580 -2.445075 -6.578433 11.428469 0.000000 0.000000 0.000000 111.635324 -38.077721 64.545862 147.624773 -42.840784 107.003535 -56.592092 -69.707594 -18.127321 0.000000 0.000000 0.000000 -7.125000 0.000000 0.000000 -53.692837 33.653999 -27.636455 0.000000 0.000000 0.000000 -52.947869 25.378047 61.198959 -123.520097 -55.296521 -88.570771 0.762472 -27.896134 -13.090729 0.000000 0.000000 0.000000 7.125000 0.000000 0.000000 19.155164 17.281701 13.373001
12.622798 16.477603 -12.443797 0.617826 -31.622598 5.000707 0.000000 0.000000 0.000000 -14.549770 6.555578 5.805767 0.000000 0.000000 0.000000 0.493060 6.577089 -17.283509 0.796938 5.697714 15.909997 0.000000 0.000000 0.000000 14.873292 31.415227 -3.959104 -0.986554 -6.322120 17.721995 0.892533 -16.758705 -9.739920 -1.528478 7.805772 -22.125698 1.385240 -1.673353 -7.080274 1.076855 -2.392121 0.025911 0.087488 -1.171675 3.985964 -15.713395 -6.344057 7.106027 -13.608648 -5.912894 36.371013 -2.951713 -6.410035 11.229453 0.000000 0.000000 0.000000 111.494476 -37.898468 66.071186 136.781691 -49.856953 99.130070 -53.719627 -68.535228 -18.802425 0.000000 0.000000 0.000000 -7.125000 0.000000 0.000000 -55.396892 36.279069 -21.867414 0.000000 0.000000 0.000000 -52.442293 25.387967 60.922566 -123.185493 -55.399579 -88.295524 -0.235876 -28.523943 -13.953478 0.000000 0.000000 0.000000 7.125000 0.000000 0.000000 18.415251 16.443230 13.153413
